<svg width="678" height="679" viewBox="0 0 678 679" fill="none" xmlns="http://www.w3.org/2000/svg">
<path fill-rule="evenodd" clip-rule="evenodd" d="M676.741 339.636C676.741 526.659 525.395 678.271 338.7 678.271C152.005 678.271 0.658936 526.659 0.658936 339.636C0.658936 152.612 152.005 1 338.7 1C525.395 1 676.741 152.612 676.741 339.636Z" fill="#803300"/>
<path d="M62.8946 535.635C63.2435 531.091 87.7778 515.993 84.3371 490.454C83.2153 482.127 72.5064 467.065 100.03 461.787C117.188 458.497 137.478 459.122 118.472 428.989C106.743 410.394 119.134 394.239 134.183 401.5C194.643 430.674 171.093 376.301 156.23 363.458C105.713 322.137 171.136 334.992 181.671 332.812C292.34 340.48 243.384 327.028 197.321 313.959C141.596 291.55 210.999 291.634 221.831 298.946C294.488 338.265 245.296 261.062 242.932 261.585C229.195 245.962 250.05 195.39 267.778 276.8C273.547 296.783 281.008 309.142 292.82 301.885C292.82 301.885 304.058 276.362 315.258 286.577C396.015 360.234 341.753 278.847 342.883 268.176C346.33 235.641 392.479 241.291 366.805 253.995C353.774 260.443 366.76 290.514 393.508 272.687C415.777 257.845 450.692 288.23 417.19 290.904C356.353 295.76 452.789 322.235 460.141 324.69C502.607 337.366 484.518 318.587 470.891 302.127C453.501 281.634 458.956 272.585 484.487 273.591C510.736 277.623 507.103 266.688 495.005 251.513C449.228 195.976 501.916 205.445 507.947 204.192C556.183 199.646 552.074 215.97 540.062 227.829C472.452 294.576 574.559 223.254 573.966 222.068C560.117 194.404 656.127 199.75 645.675 199.931C630.922 169.66 603.616 115.707 537.542 65.8544C516.319 69.505 536.968 92.2398 469.974 70.4856C455.281 67.6026 397.706 22.9497 413.512 74.3556C416.998 100.378 405.872 109.932 358.071 78.1556C338.067 63.8616 318.699 47.3771 284.095 83.226C265.034 95.8977 280.721 175.611 209.845 88.3152C177.677 58.7194 141.373 76.7626 105.01 95.5008C-45.1844 249.07 -4.35335 436.82 62.8946 535.635Z" fill="#550000"/>
<path d="M52.707 520.316C53.0582 515.998 84.189 500.845 80.7262 476.577C79.5973 468.665 68.8195 454.353 96.5196 449.338C113.788 446.211 134.209 446.806 115.08 418.173C103.276 400.503 115.746 385.152 130.892 392.052C191.741 419.774 168.039 368.108 153.081 355.904C102.239 316.64 168.083 328.855 178.685 326.784C290.065 334.07 240.794 321.287 194.436 308.869C138.353 287.575 208.202 287.655 219.103 294.604C292.227 331.965 242.719 258.605 240.34 259.103C226.515 244.257 247.504 196.203 265.346 273.56C271.152 292.548 278.66 304.292 290.548 297.396C290.548 297.396 301.858 273.143 313.13 282.851C394.406 352.841 339.795 275.505 340.933 265.365C344.402 234.45 390.847 239.819 365.009 251.89C351.894 258.017 364.963 286.591 391.883 269.652C414.295 255.549 449.428 284.344 415.717 286.962C354.339 291.727 451.091 319.606 462.164 318.26C504.903 330.305 483.477 313.267 469.763 297.626C452.261 278.154 457.751 269.554 483.446 270.51C509.864 274.342 506.208 263.951 494.032 249.532C447.961 196.76 500.988 205.757 507.058 204.566C555.603 200.247 551.468 215.758 539.379 227.027C471.334 290.451 574.097 222.679 573.5 221.553C559.562 195.266 656.189 200.346 645.67 200.518C634.846 176.591 602.536 111.617 536.037 64.2466C514.678 67.7155 536.265 98.1875 468.84 77.5163C454.052 74.7768 396.108 32.3468 412.016 81.1936C415.524 105.92 404.326 114.999 356.219 84.8044C336.085 71.222 316.594 55.5582 281.768 89.6224C262.584 101.663 278.372 177.408 207.04 94.4583C174.666 66.3359 138.129 83.4808 101.531 101.286C-49.6273 247.211 -1.78438 422.016 52.707 520.316Z" fill="#AA4400"/>
<path d="M107.813 111.987C-23.0024 275.316 8.91139 377.759 53.0826 475.617C63.5556 491.533 71.3782 488.05 74.1536 440.54C76.5048 400.293 110.271 400.568 105.398 371.607C108.272 294.536 113.115 261.132 137.593 305.493C154.767 344.102 176.226 255.442 195.543 270.823C205.348 271.495 213.093 263.037 213.903 248.113C215.193 224.324 261.483 196.136 234.981 207.933C208.458 223.903 188.019 234.921 186.128 219.481C184.178 203.563 156.013 223.614 145.641 212.771C138.074 205.523 118.858 197.407 126.643 154.915C133.045 119.968 125.494 95.9625 107.813 111.987Z" fill="#550000"/>
<path d="M287.297 134.562C331.409 210.774 256.199 180.404 259.931 203.902C257.43 216.147 262.477 215.788 266.089 217.825C308.339 234.415 264.337 237.58 288.101 267.598C303.444 284.558 324.468 215.927 376.636 209.546C406.386 211.41 408.41 233.113 424.123 245.022C438.312 265.328 462.361 252.68 457.927 231.315C429.66 176.048 468.237 102.432 435.391 124.081C415.134 133.621 401.289 149.583 373.416 151.494C365.62 149.858 354.547 163.377 342.858 140.948C327.041 110.598 274.872 112.011 287.297 134.562Z" fill="#550000"/>
<path d="M474.024 104.73C452.371 118.158 480.917 217.513 499.779 194.227C517.846 171.922 501.218 160.029 549.68 186.97C575.354 205.478 554.812 127.046 611.655 172.457C634.88 191.012 597.566 116.624 587.509 121.662C587.835 125.581 546.709 132.727 545.656 108.762C544.26 76.9975 529.747 79.2894 528.754 87.7984C527.869 95.3841 522.418 153.27 502.999 122.468C494.196 114.198 490.507 91.8423 474.024 104.73Z" fill="#550000"/>
<path d="M111.4 108.774C-37.911 252.978 8.65021 401.479 57.1542 484.762C65.7958 499.714 70.3907 456.598 74.9786 413.297C78.8653 376.615 108.994 378.186 105.931 351.535C111.92 281.227 117.727 250.895 137.606 292.384C151.221 328.333 174.314 248.164 190.874 262.973C199.596 263.971 206.886 256.545 208.271 242.941C210.48 221.255 253.052 197.311 228.871 207.053C204.487 220.607 185.753 229.875 184.751 215.694C183.717 201.073 157.685 218.292 148.909 207.979C142.476 201.061 125.684 192.893 134.521 154.373C141.788 122.692 127.895 94.824 111.4 108.774Z" fill="#D45500"/>
<path d="M293.474 132.391C335.804 205.377 263.633 176.292 267.214 198.796C264.814 210.523 269.657 210.18 273.123 212.13C313.666 228.018 271.442 231.049 294.246 259.796C308.969 276.039 329.143 210.312 379.204 204.201C407.751 205.987 409.694 226.771 424.772 238.176C438.388 257.623 461.465 245.51 457.21 225.049C430.085 172.121 467.103 101.621 435.584 122.353C416.146 131.49 402.86 146.776 376.114 148.606C368.633 147.04 358.007 159.986 346.79 138.506C331.612 109.441 281.552 110.795 293.474 132.391Z" fill="#D45500"/>
<path d="M477.721 101.889C456.981 114.097 484.324 204.431 502.392 183.259C519.698 162.98 503.77 152.166 550.191 176.661C574.784 193.489 555.106 122.178 609.555 163.466C631.803 180.336 596.061 112.703 586.427 117.283C586.739 120.846 547.346 127.343 546.337 105.554C544.999 76.6742 531.097 78.758 530.147 86.4943C529.299 93.3913 524.078 146.021 505.476 118.016C497.044 110.497 493.51 90.1711 477.721 101.889Z" fill="#D45500"/>
<path d="M312.17 357.757C344.211 339.219 364.928 407.649 388.432 454.678C398.696 478.168 367.198 483.064 353.146 495.727C402.999 472.45 416.112 495.179 430.547 516.251C426.251 515.042 409.413 481.368 448.759 443.276C463.909 428.608 459.971 423.083 506.809 467.221C512.696 468.779 546.148 502.554 568.274 523.093C444.159 350.993 507.187 382.209 595.592 440.995C577.768 416.411 546.016 401.128 544.371 365.739C540.186 349.055 567.326 372.158 588.763 361.178C521.644 337.165 586.149 325.514 608.113 309.867C579.993 317.154 557.48 316.015 553.477 287.062C557.059 345.925 510.34 365.429 503.394 366.879C469.151 408.121 421.708 464.405 463.556 353.196C416.696 438.631 400.038 369.765 382.741 304.166C381.742 336.794 438.638 502.815 356.561 348.635C338.391 339.83 300.66 360.418 304.202 318.989C288.053 354.12 270.851 389.017 227.94 418.19L312.17 357.757Z" fill="#FEB100"/>
<path d="M316.607 357.421C347.305 339.868 367.154 404.661 389.672 449.192C399.507 471.433 369.329 476.069 355.866 488.059C403.629 466.019 416.192 487.54 430.022 507.493C425.906 506.348 409.774 474.463 447.47 438.395C461.986 424.507 458.213 419.275 503.088 461.068C508.727 462.544 540.777 494.524 561.976 513.971C443.063 351.017 503.449 380.573 588.149 436.236C571.072 412.958 540.651 398.488 539.075 364.979C535.066 349.181 561.067 371.057 581.606 360.66C517.301 337.923 579.102 326.891 600.145 312.076C573.203 318.975 551.634 317.897 547.799 290.483C551.231 346.217 506.471 364.686 499.816 366.058C467.008 405.109 421.554 458.402 461.647 353.103C416.752 433.997 400.792 368.791 384.22 306.677C383.263 337.572 437.774 494.771 359.137 348.784C341.729 340.447 305.58 359.941 308.973 320.713C293.501 353.977 277.02 387.02 235.907 414.643L316.607 357.421Z" fill="#AD3200"/>
<path d="M359.976 379.707C373.873 406.692 391.637 423.341 401.561 460.949C398.979 474.676 388.834 471.554 382.368 476.628C400.679 467.049 409.762 475.564 417.555 486.605C426.077 466.098 410.463 442.15 444.745 425.317C434.77 407.554 449.457 392.931 452.743 376.856C438.448 395.681 425.183 427.356 404.76 369.73L406.359 415.34C401.936 425.593 381.074 402.887 359.976 379.707Z" fill="url(#paint0_radial_156_25)"/>
<path d="M461.279 414.199C474.332 401.499 486.132 396.328 500.549 375.431C516.423 362.838 533.263 357.021 547.786 334.952C546.179 340.089 534.984 351.337 548.355 346.925C541.022 353.826 542.159 343.755 527.297 365.739C533.018 383.509 543.016 398.708 556.323 411.919C557.737 414.541 517.637 375.67 500.549 385.123C494.193 388.765 491.586 393.66 489.735 398.806C489.967 422.82 498.458 441.663 510.793 458.099C494.493 442.713 481.619 414.745 461.279 414.199Z" fill="url(#paint1_radial_156_25)"/>
<path d="M106.753 554.234C246.008 708.205 395.62 666.186 480.219 620.201C495.406 612.012 452.529 606.075 409.467 600.139C372.987 595.111 375.489 564.993 348.802 567.233C278.837 559.058 248.753 552.303 290.765 533.685C327.056 521.167 247.781 495.559 263.07 479.437C264.336 470.735 257.153 463.206 243.622 461.397C222.054 458.513 199.482 415.145 208.453 439.658C221.221 464.494 229.888 483.539 215.707 484.103C201.087 484.685 217.461 511.283 206.899 519.751C199.797 525.979 191.127 542.539 152.967 532.497C121.582 524.238 93.3457 537.286 106.753 554.234Z" fill="#550000"/>
<path d="M111.437 558.588C244.793 701.778 388.067 662.701 469.084 619.936C483.627 612.32 442.566 606.799 401.328 601.279C366.394 596.603 368.789 568.593 343.233 570.677C276.231 563.074 247.422 556.793 287.655 539.478C322.408 527.836 246.492 504.022 261.133 489.029C262.345 480.936 255.466 473.934 242.509 472.251C221.854 469.57 200.238 429.238 208.829 452.035C221.056 475.132 229.356 492.843 215.776 493.368C201.775 493.909 217.455 518.645 207.341 526.52C200.54 532.311 192.237 547.712 155.694 538.373C125.638 530.693 98.5979 542.827 111.437 558.588Z" fill="#D45500"/>
<path opacity="0.599119" fill-rule="evenodd" clip-rule="evenodd" d="M676.741 339.636C676.741 526.659 525.395 678.271 338.7 678.271C152.005 678.271 0.658936 526.659 0.658936 339.636C0.658936 152.612 152.005 1 338.7 1C525.395 1 676.741 152.612 676.741 339.636Z" fill="url(#paint2_radial_156_25)" stroke="url(#paint3_radial_156_25)" stroke-width="1.12779"/>
<defs>
<radialGradient id="paint0_radial_156_25" cx="0" cy="0" r="1" gradientUnits="userSpaceOnUse" gradientTransform="translate(410.4 430.124) scale(35.3553 44.9518)">
<stop stop-color="#800000"/>
<stop offset="1" stop-color="#800000" stop-opacity="0"/>
</radialGradient>
<radialGradient id="paint1_radial_156_25" cx="0" cy="0" r="1" gradientUnits="userSpaceOnUse" gradientTransform="translate(500.067 399.82) scale(42.1901 54.5482)">
<stop stop-color="#800000"/>
<stop offset="1" stop-color="#800000" stop-opacity="0"/>
</radialGradient>
<radialGradient id="paint2_radial_156_25" cx="0" cy="0" r="1" gradientUnits="userSpaceOnUse" gradientTransform="translate(418.378 492.992) scale(301.215 299.785)">
<stop stop-color="#FE0000" stop-opacity="0.0980392"/>
<stop offset="0.25" stop-color="#ED0000" stop-opacity="0.196078"/>
<stop offset="0.5" stop-color="#DD0000" stop-opacity="0.392157"/>
<stop offset="1" stop-color="#BC0000" stop-opacity="0.784314"/>
</radialGradient>
<radialGradient id="paint3_radial_156_25" cx="0" cy="0" r="1" gradientUnits="userSpaceOnUse" gradientTransform="translate(418.378 492.992) scale(301.215 299.785)">
<stop/>
<stop offset="1" stop-opacity="0"/>
</radialGradient>
</defs>
</svg>
